<?xml version="1.0" encoding="iso-8859-1"?>
<!-- Generator: Adobe Illustrator 18.0.0, SVG Export Plug-In . SVG Version: 6.00 Build 0)  -->
<!DOCTYPE svg PUBLIC "-//W3C//DTD SVG 1.1//EN" "http://www.w3.org/Graphics/SVG/1.1/DTD/svg11.dtd">
<svg version="1.1" id="Capa_1" xmlns="http://www.w3.org/2000/svg" xmlns:xlink="http://www.w3.org/1999/xlink" x="0px" y="0px"
	 viewBox="0 0 453.154 453.154" style="enable-background:new 0 0 453.154 453.154;" xml:space="preserve">
<g>
	<path d="M450.173,369.919c-3.304-2.495-8.008-1.841-10.505,1.466c-3.329,4.408-8.406,6.937-13.93,6.937
		c-5.524,0-10.603-2.528-13.932-6.937c-6.189-8.196-15.63-12.896-25.9-12.896c-0.001,0,0,0-0.001,0
		c-10.27,0-19.711,4.7-25.901,12.896c-3.329,4.408-8.406,6.937-13.931,6.937s-10.602-2.528-13.931-6.937
		c-0.616-0.815-1.272-1.586-1.95-2.33l25.375-105.042c0.908-3.759-1.19-7.593-4.848-8.852l-14.356-4.945l-9.472-63.384h14.181
		c2.439,0,4.726-1.187,6.131-3.18c1.405-1.994,1.753-4.547,0.932-6.844l-17.148-48c-1.066-2.984-3.894-4.977-7.063-4.977h-23.299
		l-8.175-44.845c-0.649-3.564-3.755-6.155-7.378-6.155h-51.695v-5.5c0-4.143-3.357-7.5-7.5-7.5s-7.5,3.357-7.5,7.5v5.5h-50.305
		c-3.623,0-6.729,2.59-7.378,6.155l-8.176,44.845h-23.298c-3.169,0-5.996,1.992-7.063,4.977l-17.148,48
		c-0.821,2.297-0.474,4.85,0.932,6.844c1.405,1.993,3.691,3.18,6.131,3.18h14.181l-9.471,63.387l-14.347,4.942
		c-3.657,1.259-5.756,5.093-4.848,8.852l25.375,105.038c-0.679,0.746-1.336,1.517-1.953,2.334c-3.329,4.408-8.406,6.937-13.93,6.937
		c-5.524,0-10.603-2.528-13.932-6.937c-6.189-8.196-15.63-12.896-25.9-12.896c0,0,0,0-0.001,0c-10.27,0-19.711,4.7-25.901,12.896
		c-3.329,4.408-8.406,6.937-13.931,6.937s-10.602-2.528-13.931-6.937c-2.494-3.305-7.198-3.962-10.505-1.466
		c-3.306,2.496-3.962,7.199-1.466,10.505c6.189,8.196,15.631,12.897,25.901,12.897s19.712-4.701,25.9-12.896
		c3.33-4.408,8.408-6.937,13.933-6.937c5.523,0,10.602,2.528,13.93,6.937c6.19,8.196,15.632,12.896,25.902,12.896
		s19.711-4.701,25.899-12.896c3.33-4.408,8.408-6.937,13.933-6.937c5.523,0,10.602,2.528,13.931,6.936
		c6.189,8.196,15.63,12.897,25.9,12.897c0,0,0,0,0.001,0c10.27,0,19.711-4.701,25.901-12.897c3.329-4.407,8.406-6.936,13.93-6.936
		c5.524,0,10.603,2.528,13.932,6.936c6.189,8.196,15.631,12.897,25.901,12.897s19.712-4.701,25.901-12.897
		c3.329-4.407,8.406-6.936,13.931-6.936s10.602,2.528,13.931,6.936c6.189,8.196,15.631,12.897,25.901,12.897
		s19.712-4.701,25.9-12.896c3.33-4.408,8.408-6.937,13.933-6.937c5.523,0,10.601,2.528,13.93,6.937
		c6.19,8.196,15.632,12.896,25.902,12.896s19.711-4.701,25.9-12.897C454.135,377.119,453.479,372.416,450.173,369.919z
		 M338.144,272.265l-104.066-28.648v-12.769l105.309,36.274L338.144,272.265z M169.591,113.833h54.835v-15h-52.101l2.005-11h104.487
		l2.005,11h-52.101v15h54.835l1.823,10H167.768L169.591,113.833z M125.934,162.833h33.981v-15h-28.622l3.215-9h184.133l3.215,9
		h-28.613v15h33.972l3.215,9H122.718L125.934,162.833z M141.422,186.833h170.304l8.649,57.876l-91.353-31.467
		c-1.582-0.545-3.303-0.545-4.885,0l-91.363,31.47L141.422,186.833z M219.078,230.849v12.769l-104.064,28.648l-1.243-5.144
		L219.078,230.849z M200.676,371.384c-3.329,4.409-8.407,6.938-13.932,6.938c-5.523,0-10.602-2.528-13.931-6.937
		c-6.189-8.196-15.63-12.896-25.9-12.896c0,0,0,0-0.001,0c-3.693,0-7.275,0.617-10.64,1.776l-17.734-73.411l100.54-27.677v100.172
		C211.795,361.054,205.321,365.235,200.676,371.384z M280.34,371.385c-3.329,4.408-8.406,6.937-13.931,6.937
		s-10.602-2.528-13.932-6.938c-4.644-6.149-11.119-10.33-18.4-12.035V259.176l100.542,27.678l-17.734,73.412
		c-3.367-1.16-6.95-1.777-10.644-1.777C295.971,358.489,286.531,363.189,280.34,371.385z"/>
	<path d="M150.552,192.515c-4.061-0.786-7.997,1.889-8.774,5.958l-1.284,6.717c-0.778,4.068,1.89,7.997,5.958,8.774
		c0.476,0.092,0.949,0.135,1.417,0.135c3.527,0,6.671-2.5,7.357-6.093l1.284-6.717C157.289,197.221,154.621,193.292,150.552,192.515
		z"/>
	<path d="M169.553,191.858c-4.101-0.584-7.899,2.26-8.488,6.359l-0.963,6.716c-0.588,4.101,2.259,7.9,6.359,8.488
		c0.361,0.052,0.72,0.077,1.074,0.077c3.67,0,6.878-2.697,7.414-6.437l0.963-6.716C176.5,196.246,173.654,192.446,169.553,191.858z"
		/>
	<path d="M188.547,191.316c-4.105-0.392-7.785,2.628-8.18,6.752l-0.643,6.716c-0.395,4.123,2.628,7.785,6.752,8.18
		c0.242,0.023,0.483,0.035,0.723,0.035c3.82,0,7.086-2.906,7.457-6.787l0.643-6.716C195.694,195.373,192.671,191.71,188.547,191.316
		z"/>
	<path d="M207.537,190.89c-4.141-0.197-7.652,2.996-7.85,7.133l-0.321,6.717c-0.198,4.138,2.995,7.652,7.133,7.85
		c0.122,0.006,0.243,0.009,0.364,0.009c3.978,0,7.294-3.127,7.485-7.142l0.321-6.717
		C214.868,194.602,211.674,191.087,207.537,190.89z"/>
	<path d="M246.183,212.598c0.121,0,0.242-0.003,0.364-0.009c4.138-0.197,7.331-3.712,7.133-7.85l-0.321-6.717
		c-0.197-4.138-3.73-7.339-7.85-7.133c-4.138,0.197-7.331,3.712-7.133,7.85l0.321,6.717
		C238.889,209.472,242.206,212.598,246.183,212.598z"/>
	<path d="M258.389,206.211c0.371,3.881,3.637,6.787,7.457,6.787c0.239,0,0.48-0.012,0.723-0.035c4.124-0.395,7.146-4.057,6.752-8.18
		l-0.643-6.716c-0.395-4.124-4.068-7.149-8.18-6.752c-4.124,0.395-7.146,4.057-6.752,8.18L258.389,206.211z"/>
	<path d="M278.096,207.062c0.536,3.739,3.744,6.437,7.414,6.437c0.354,0,0.713-0.025,1.074-0.077
		c4.101-0.588,6.947-4.388,6.359-8.488l-0.963-6.716c-0.588-4.101-4.393-6.946-8.488-6.359c-4.101,0.588-6.947,4.388-6.359,8.488
		L278.096,207.062z"/>
	<path d="M297.82,208.006c0.687,3.593,3.83,6.093,7.357,6.093c0.468,0,0.941-0.044,1.417-0.135c4.068-0.777,6.736-4.706,5.958-8.774
		l-1.284-6.717c-0.778-4.069-4.708-6.735-8.774-5.958c-4.068,0.777-6.736,4.706-5.958,8.774L297.82,208.006z"/>
	<rect x="164.727" y="147.833" width="59.587" height="15"/>
	<rect x="228.87" y="147.833" width="59.586" height="15"/>
	<path d="M199.578,273.333c-4.143,0-7.5,3.357-7.5,7.5v14.5c0,4.143,3.357,7.5,7.5,7.5s7.5-3.357,7.5-7.5v-14.5
		C207.078,276.69,203.72,273.333,199.578,273.333z"/>
	<path d="M253.578,273.333c-4.143,0-7.5,3.357-7.5,7.5v14.5c0,4.143,3.357,7.5,7.5,7.5s7.5-3.357,7.5-7.5v-14.5
		C261.078,276.69,257.72,273.333,253.578,273.333z"/>
</g>
<g>
</g>
<g>
</g>
<g>
</g>
<g>
</g>
<g>
</g>
<g>
</g>
<g>
</g>
<g>
</g>
<g>
</g>
<g>
</g>
<g>
</g>
<g>
</g>
<g>
</g>
<g>
</g>
<g>
</g>
</svg>
